<svg xmlns="http://www.w3.org/2000/svg" viewBox="0 0 100 100" width="100" height="100">
  <!-- 둥근 사각형 배경 테두리 -->
  <rect x="4" y="4" width="92" height="92" rx="16" ry="16" fill="#ffffff" stroke="#4a7c3f" stroke-width="5"/>

  <!-- 벌레 몸통 (타원) -->
  <ellipse cx="50" cy="52" rx="22" ry="24" fill="#e05a33"/>

  <!-- 더듬이 -->
  <line x1="40" y1="30" x2="35" y2="20" stroke="#e05a33" stroke-width="3" stroke-linecap="round"/>
  <line x1="60" y1="30" x2="65" y2="20" stroke="#e05a33" stroke-width="3" stroke-linecap="round"/>
  <circle cx="34" cy="18" r="3" fill="#e05a33"/>
  <circle cx="66" cy="18" r="3" fill="#e05a33"/>

  <!-- 다리 (좌우 3쌍) -->
  <line x1="30" y1="42" x2="22" y2="36" stroke="#e05a33" stroke-width="2.5" stroke-linecap="round"/>
  <line x1="30" y1="52" x2="20" y2="52" stroke="#e05a33" stroke-width="2.5" stroke-linecap="round"/>
  <line x1="30" y1="62" x2="22" y2="68" stroke="#e05a33" stroke-width="2.5" stroke-linecap="round"/>
  <line x1="70" y1="42" x2="78" y2="36" stroke="#e05a33" stroke-width="2.5" stroke-linecap="round"/>
  <line x1="70" y1="52" x2="80" y2="52" stroke="#e05a33" stroke-width="2.5" stroke-linecap="round"/>
  <line x1="70" y1="62" x2="78" y2="68" stroke="#e05a33" stroke-width="2.5" stroke-linecap="round"/>

  <!-- 눈 -->
  <circle cx="42" cy="44" r="5" fill="#ffffff"/>
  <circle cx="58" cy="44" r="5" fill="#ffffff"/>
  <circle cx="43" cy="44" r="2.5" fill="#2d2d2d"/>
  <circle cx="59" cy="44" r="2.5" fill="#2d2d2d"/>
</svg>
