<svg xmlns="http://www.w3.org/2000/svg" viewBox="0 0 44 36" width="44" height="36">
  <!-- 밀짚모자 -->
  <rect x="4" y="0" width="18" height="2.5" rx="1" fill="#D4A44C"/>
  <rect x="2" y="2.5" width="22" height="1.8" rx="1" fill="#C49435"/>
  <rect x="6" y="2.5" width="14" height="5" rx="2" fill="#D4A44C"/>
  <!-- 머리카락 -->
  <rect x="7" y="7" width="12" height="2.5" rx="1" fill="#8B5E3C"/>
  <rect x="5" y="8.5" width="3" height="6" rx="1" fill="#8B5E3C"/>
  <rect x="18" y="8.5" width="3" height="6" rx="1" fill="#8B5E3C"/>
  <!-- 얼굴 -->
  <rect x="7" y="8.5" width="12" height="9" rx="3" fill="#FDDCB5"/>
  <!-- 눈 (편안한 반달눈) -->
  <path d="M10 12.5 Q11 11.2 12 12.5" stroke="#3B2F2F" fill="none" stroke-width="0.9" stroke-linecap="round"/>
  <path d="M14.5 12.5 Q15.5 11.2 16.5 12.5" stroke="#3B2F2F" fill="none" stroke-width="0.9" stroke-linecap="round"/>
  <!-- 입 (미소) -->
  <path d="M11 15.5 Q13 17 15 15.5" stroke="#D4836B" fill="none" stroke-width="0.8" stroke-linecap="round"/>
  <!-- 볼 홍조 -->
  <circle cx="9" cy="14.2" r="1.3" fill="#FFCDB2" opacity="0.5"/>
  <circle cx="17.5" cy="14.2" r="1.3" fill="#FFCDB2" opacity="0.5"/>
  <!-- 몸통 - 체크셔츠 -->
  <rect x="7" y="17.5" width="12" height="3.5" rx="1" fill="#E05555"/>
  <line x1="10" y1="17.5" x2="10" y2="21" stroke="#fff" stroke-width="0.5" opacity="0.4"/>
  <line x1="13" y1="17.5" x2="13" y2="21" stroke="#fff" stroke-width="0.5" opacity="0.4"/>
  <line x1="16" y1="17.5" x2="16" y2="21" stroke="#fff" stroke-width="0.5" opacity="0.4"/>
  <!-- 멜빵 -->
  <rect x="9" y="18.5" width="2" height="3.5" rx="0.5" fill="#4A6FA5"/>
  <rect x="15" y="18.5" width="2" height="3.5" rx="0.5" fill="#4A6FA5"/>
  <!-- 엉덩이/하체 (앉은 자세) -->
  <rect x="7" y="20.5" width="12" height="5" rx="1" fill="#4A6FA5"/>
  <!-- 벨트 -->
  <rect x="7" y="22" width="12" height="1.2" fill="#8B6543"/>
  <rect x="12" y="21.5" width="1.8" height="2" rx="0.5" fill="#C49435"/>
  <!-- 다리 (앞으로 쭉 뻗음) -->
  <rect x="8" y="25" width="14" height="3.5" rx="1.5" fill="#4A6FA5"/>
  <!-- 부츠 -->
  <rect x="19" y="24.5" width="5" height="4.5" rx="1.2" fill="#6B3A2A"/>
  <rect x="8" y="24.5" width="5" height="4.5" rx="1.2" fill="#6B3A2A"/>
  <!-- 왼팔 (바닥 짚기) -->
  <rect x="1" y="19" width="6.5" height="2.5" rx="1.2" fill="#FDDCB5"/>
  <!-- 오른팔 (무릎 위) -->
  <rect x="18" y="20" width="5" height="2.5" rx="1.2" fill="#FDDCB5"/>
  <!-- 바닥 -->
  <rect x="0" y="29" width="44" height="1.2" rx="0.5" fill="#8B6543" opacity="0.25"/>

  <!-- === 오리 === -->
  <!-- 몸통 -->
  <ellipse cx="35" cy="25.5" rx="4" ry="3.5" fill="#FFD966"/>
  <!-- 머리 -->
  <circle cx="37.5" cy="20.5" r="3" fill="#FFD966"/>
  <!-- 눈 -->
  <circle cx="38.8" cy="19.8" r="0.7" fill="#3B2F2F"/>
  <!-- 부리 -->
  <ellipse cx="40.5" cy="21" rx="2" ry="0.9" fill="#FF8C00"/>
  <!-- 날개 -->
  <ellipse cx="33" cy="24.5" rx="2.2" ry="3" fill="#F0C040" transform="rotate(-10,33,24.5)"/>
  <!-- 발 -->
  <rect x="33" y="28.5" width="2" height="1" rx="0.3" fill="#FF8C00"/>
  <rect x="36" y="28.5" width="2" height="1" rx="0.3" fill="#FF8C00"/>
  <!-- 볼 홍조 -->
  <circle cx="37" cy="21.5" r="0.8" fill="#FFB88C" opacity="0.5"/>
</svg>
