<svg xmlns="http://www.w3.org/2000/svg" viewBox="0 0 24 24" width="24" height="24">
  <!-- 밀짚모자 -->
  <rect x="4" y="0" width="16" height="2.5" rx="1" fill="#D4A44C"/>
  <rect x="2" y="2.5" width="20" height="1.8" rx="1" fill="#C49435"/>
  <rect x="6" y="2.5" width="12" height="5" rx="2" fill="#D4A44C"/>
  <!-- 머리카락 -->
  <rect x="7" y="7" width="10" height="2.5" rx="1" fill="#8B5E3C"/>
  <rect x="5" y="8.5" width="3" height="6" rx="1" fill="#8B5E3C"/>
  <rect x="16" y="8.5" width="3" height="6" rx="1" fill="#8B5E3C"/>
  <!-- 얼굴 -->
  <rect x="7" y="8.5" width="10" height="8.5" rx="3" fill="#FDDCB5"/>
  <!-- 눈썹 (슬픔 - 안쪽이 올라간 八 자) -->
  <line x1="8.8" y1="10.6" x2="10.8" y2="11.4" stroke="#3B2F2F" stroke-width="0.8" stroke-linecap="round"/>
  <line x1="13.2" y1="11.4" x2="15.2" y2="10.6" stroke="#3B2F2F" stroke-width="0.8" stroke-linecap="round"/>
  <!-- 눈 (감은 ㅡ 모양) -->
  <path d="M9 13 Q10 13.8 11 13" stroke="#3B2F2F" fill="none" stroke-width="0.8" stroke-linecap="round"/>
  <path d="M13 13 Q14 13.8 15 13" stroke="#3B2F2F" fill="none" stroke-width="0.8" stroke-linecap="round"/>
  <!-- 눈물 (양쪽으로 흘러내림) -->
  <path d="M9.5 13.8 Q9.3 15 9.6 16" stroke="#5DADE2" fill="none" stroke-width="0.9" stroke-linecap="round"/>
  <path d="M14.5 13.8 Q14.7 15 14.4 16" stroke="#5DADE2" fill="none" stroke-width="0.9" stroke-linecap="round"/>
  <ellipse cx="9.7" cy="16.2" rx="0.6" ry="0.9" fill="#5DADE2"/>
  <ellipse cx="14.3" cy="16.2" rx="0.6" ry="0.9" fill="#5DADE2"/>
  <!-- 입 (슬픈 ⌒ 형태) -->
  <path d="M10.5 16.2 Q12 15.3 13.5 16.2" stroke="#3B2F2F" fill="none" stroke-width="0.8" stroke-linecap="round"/>
  <!-- 몸통 - 체크셔츠 -->
  <rect x="6" y="17" width="12" height="6" rx="1" fill="#E05555"/>
  <line x1="9" y1="17" x2="9" y2="23" stroke="#fff" stroke-width="0.5" opacity="0.4"/>
  <line x1="12" y1="17" x2="12" y2="23" stroke="#fff" stroke-width="0.5" opacity="0.4"/>
  <line x1="15" y1="17" x2="15" y2="23" stroke="#fff" stroke-width="0.5" opacity="0.4"/>
  <!-- 멜빵 -->
  <rect x="8" y="18" width="2" height="5" rx="0.5" fill="#4A6FA5"/>
  <rect x="14" y="18" width="2" height="5" rx="0.5" fill="#4A6FA5"/>
</svg>
