<svg xmlns="http://www.w3.org/2000/svg" viewBox="0 0 24 24" width="24" height="24">
  <!-- 머리 위 ? 마크 -->
  <text x="19" y="6.5" font-size="6" font-weight="bold" fill="#0EA5E9">?</text>
  <!-- 밀짚모자 -->
  <rect x="4" y="0" width="16" height="2.5" rx="1" fill="#D4A44C"/>
  <rect x="2" y="2.5" width="20" height="1.8" rx="1" fill="#C49435"/>
  <rect x="6" y="2.5" width="12" height="5" rx="2" fill="#D4A44C"/>
  <!-- 머리카락 -->
  <rect x="7" y="7" width="10" height="2.5" rx="1" fill="#8B5E3C"/>
  <rect x="5" y="8.5" width="3" height="6" rx="1" fill="#8B5E3C"/>
  <rect x="16" y="8.5" width="3" height="6" rx="1" fill="#8B5E3C"/>
  <!-- 얼굴 -->
  <rect x="7" y="8.5" width="10" height="8.5" rx="3" fill="#FDDCB5"/>
  <!-- 눈썹 (한쪽 위로 ↗ — 호기심) -->
  <line x1="8.8" y1="11.2" x2="10.8" y2="11" stroke="#3B2F2F" stroke-width="0.8" stroke-linecap="round"/>
  <line x1="13" y1="10.5" x2="15.2" y2="11.4" stroke="#3B2F2F" stroke-width="0.8" stroke-linecap="round"/>
  <!-- 눈 (똘망똘망 + 위쪽 살짝 보는 느낌) -->
  <circle cx="10" cy="12.5" r="0.95" fill="#3B2F2F"/>
  <circle cx="14" cy="12.5" r="0.95" fill="#3B2F2F"/>
  <circle cx="10.2" cy="12.2" r="0.3" fill="#fff"/>
  <circle cx="14.2" cy="12.2" r="0.3" fill="#fff"/>
  <!-- 입 (작고 동그란 "오?") -->
  <circle cx="12" cy="15.6" r="1.1" fill="#D4836B"/>
  <circle cx="12" cy="15.4" r="0.5" fill="#3B2F2F"/>
  <!-- 볼 홍조 (살짝) -->
  <circle cx="9" cy="14.5" r="1" fill="#FFCDB2" opacity="0.4"/>
  <circle cx="15" cy="14.5" r="1" fill="#FFCDB2" opacity="0.4"/>
  <!-- 몸통 - 체크셔츠 -->
  <rect x="6" y="17" width="12" height="6" rx="1" fill="#E05555"/>
  <line x1="9" y1="17" x2="9" y2="23" stroke="#fff" stroke-width="0.5" opacity="0.4"/>
  <line x1="12" y1="17" x2="12" y2="23" stroke="#fff" stroke-width="0.5" opacity="0.4"/>
  <line x1="15" y1="17" x2="15" y2="23" stroke="#fff" stroke-width="0.5" opacity="0.4"/>
  <!-- 멜빵 -->
  <rect x="8" y="18" width="2" height="5" rx="0.5" fill="#4A6FA5"/>
  <rect x="14" y="18" width="2" height="5" rx="0.5" fill="#4A6FA5"/>
  <!-- 한쪽 손 턱 근처 (생각하는 포즈) - 살짝 위로 -->
  <rect x="14.5" y="14.5" width="2.8" height="2.5" rx="1" fill="#FDDCB5"/>
</svg>
