<svg xmlns="http://www.w3.org/2000/svg" viewBox="0 0 32 40" width="32" height="40">
  <!-- 밀짚모자 -->
  <rect x="6" y="0" width="20" height="3" rx="1" fill="#D4A44C"/>
  <rect x="4" y="3" width="24" height="2" rx="1" fill="#C49435"/>
  <rect x="9" y="3" width="14" height="6" rx="2" fill="#D4A44C"/>
  <!-- 머리카락 -->
  <rect x="10" y="8" width="12" height="3" rx="1" fill="#8B5E3C"/>
  <rect x="8" y="10" width="3" height="8" rx="1" fill="#8B5E3C"/>
  <rect x="21" y="10" width="3" height="8" rx="1" fill="#8B5E3C"/>
  <!-- 얼굴 -->
  <rect x="10" y="10" width="12" height="10" rx="3" fill="#FDDCB5"/>
  <!-- 눈 -->
  <circle cx="13" cy="14" r="1.2" fill="#3B2F2F"/>
  <circle cx="19" cy="14" r="1.2" fill="#3B2F2F"/>
  <!-- 입 -->
  <path d="M14 17.5 Q16 19 18 17.5" stroke="#D4836B" fill="none" stroke-width="0.8" stroke-linecap="round"/>
  <!-- 볼 홍조 -->
  <circle cx="11.5" cy="16.5" r="1.5" fill="#FFCDB2" opacity="0.5"/>
  <circle cx="20.5" cy="16.5" r="1.5" fill="#FFCDB2" opacity="0.5"/>
  <!-- 몸통 - 체크셔츠 -->
  <rect x="9" y="20" width="14" height="4" rx="1" fill="#E05555"/>
  <line x1="12" y1="20" x2="12" y2="24" stroke="#fff" stroke-width="0.5" opacity="0.4"/>
  <line x1="16" y1="20" x2="16" y2="24" stroke="#fff" stroke-width="0.5" opacity="0.4"/>
  <line x1="20" y1="20" x2="20" y2="24" stroke="#fff" stroke-width="0.5" opacity="0.4"/>
  <!-- 멜빵 작업복 -->
  <rect x="10" y="23" width="12" height="10" rx="1" fill="#4A6FA5"/>
  <rect x="12" y="21" width="2" height="4" rx="0.5" fill="#4A6FA5"/>
  <rect x="18" y="21" width="2" height="4" rx="0.5" fill="#4A6FA5"/>
  <!-- 벨트 -->
  <rect x="10" y="26" width="12" height="1.5" fill="#8B6543"/>
  <rect x="15" y="25.5" width="2" height="2.5" rx="0.5" fill="#C49435"/>
  <!-- 팔 -->
  <rect x="5" y="20" width="5" height="3" rx="1.5" fill="#FDDCB5"/>
  <rect x="22" y="20" width="5" height="3" rx="1.5" fill="#FDDCB5"/>
  <!-- 다리 -->
  <rect x="11" y="32" width="4" height="5" rx="1" fill="#4A6FA5"/>
  <rect x="17" y="32" width="4" height="5" rx="1" fill="#4A6FA5"/>
  <!-- 부츠 -->
  <rect x="10" y="36" width="5" height="3" rx="1" fill="#6B3A2A"/>
  <rect x="17" y="36" width="5" height="3" rx="1" fill="#6B3A2A"/>
</svg>
